/* XPM */
static char *ic_folder_closed_xpm[] = {
/* width height ncolors chars_per_pixel */
"16 16 5 1",
/* colors */
"  c #000000",
". c #C0C0C0",
"X c #808080",
"o c #FFFFFF",
"O c None",
/* pixels */
"OOOOOOOOOOOOOOOO",
"OOOXXXXOOOOOOOOO",
"OOX....XOOOOOOOO",
"OX......XXXXXXXO",
"OXooooooooooooX ",
"OXo...........X ",
"OXo...........X ",
"OXo...........X ",
"OXo...........X ",
"OXo...........X ",
"OXo...........X ",
"OXo...........X ",
"OXXXXXXXXXXXXXX ",
"OO              ",
"OOOOOOOOOOOOOOOO",
"OOOOOOOOOOOOOOOO"
};
