/* XPM */
static char *ic_listener_xpm[] = {
/* width height ncolors chars_per_pixel */
"16 16 4 1",
/* colors */
"  c #000000",
". c #FFFFFF",
"X c #0000FF",
"o c None",
/* pixels */
"                ",
" XXXXXXXXXXXXXX ",
"                ",
" .............. ",
" .  . . ....... ",
" . .    ....... ",
" .............. ",
" .X.XX......... ",
" .XXXXX........ ",
" .............. ",
"                ",
" .............. ",
" .  . . ....... ",
" . .    ....... ",
" .............. ",
"                "
};
