/* XPM */
static char *ic_script_xpm[] = {
/* width height ncolors chars_per_pixel */
"16 16 6 1",
/* colors */
"  c #000000",
". c #008080",
"X c #808080",
"o c #FFFFFF",
"O c #0000FF",
"+ c None",
/* pixels */
"++         +++++",
"++ ooooooo  ++++",
"++ ooooooo o +++",
"++ oOO...o    ++",
"++ oooooooooo ++",
"++ oo...XXXoo ++",
"++ oooooooooo ++",
"++ ooOO...ooo ++",
"++ oooooooooo ++",
"++ ooo....ooo ++",
"++ oooooooooo ++",
"++ oo...XXooo ++",
"++ oooooooooo ++",
"++ oooooooooo ++",
"++            ++",
"++++++++++++++++"
};
