/* XPM */
static char *ic_scripts_xpm[] = {
/* width height ncolors chars_per_pixel */
"32 32 7 1",
/* colors */
"  c #000000",
". c #800000",
"X c #FF0000",
"o c #808080",
"O c #FFFFFF",
"+ c #008000",
"@ c None",
/* pixels */
"@@  @@  @@@@@@@@@@@@+++@@@@@@@@@",
"@  @@@@  @@@@@@@@@@@@+++@@@@@@@@",
"  @@@@@@  @@@@@@@@@@@@++@@@@@@@@",
"  @@@@@@  @@@@@@@@@@@@++@@@@@@@@",
"  @@@@@@  @@@@@@@@@@@@++@@@@@@@@",
"  @@@@@@  @@@@@@@+++++++@@@@@@@@",
"  @@@@@@  @@@@@@++++++++@@@@@@@@",
"  @@@@@@  @@@@@XXXX++++++@@@@@@@",
"@  @@@@  @@@@@@XXXOXXX+++@@@@@@@",
"@@  @@  @@@@@@XXXOOOXX++++@@@@@@",
"@@@@@@@@@@@@@@XXOOXXXXX+++@@@@@@",
"@@@@@@@@@@@@@@XXOXXXX.XX++@@@@@@",
"@@@@@@@@@@@@@XXOOXXXX..X++@@@@@@",
"@@@@@@@@@@@@@XXOXXXXX...X+@@@@@@",
"@@@@@@@@@@@@XXXOXXXXX..XX@@@@@@@",
"@@@@@@@@@@@@XXOXXXXX...XX@@@@@@@",
"@@@@@@@@@@@@XXOXXXXX...X.@@@@@@@",
"@@@@@@@@@@@XXOXXXXX...XX@@@@@@@@",
"@@@@@@@@@@@XXXXXXXX...XX@@@@@@@@",
"@@@@@@@@@@XXXXXXXX...XX@@@@     ",
"@@@@@@@@@@XXXXXXX....XX@        ",
"@@@@@@@@@XXXXXXXX...XX          ",
"@@@@@@@@XXXXXXXX...XX           ",
"@@@@@@@XXXXXXXX...XX            ",
"@@@@@XXXOOXXXX...XX            o",
"@@@XXXOOXXXXX...XX            oo",
"@@XXXOXXXXX...XXX           ooo@",
"@XXXXXXX....XXX            ooo@@",
"@XXOXX...XXXX           ooooo@@@",
"@XXXXXXXX              ooooo@@@@",
"@@@XX                 oooo@@@@@@",
"@@@@@@             ooooo@@@@@@@@"
};
