/* XPM */
static char *ic_template_xpm[] = {
/* width height ncolors chars_per_pixel */
"16 16 4 1",
/* colors */
"  c #000000",
". c #C0C0C0",
"X c #FFFFFF",
"o c None",
/* pixels */
"oooooooooooooooo",
"oooooooooooooooo",
"o              o",
"o XXXXXXXXXXXX o",
"o X  .  . .  X o",
"o X ........ X o",
"o X..........X o",
"o X ........ X o",
"o X ........ X o",
"o X..........X o",
"o X ........ X o",
"o X  .  . .  X o",
"o XXXXXXXXXXXX o",
"o              o",
"oooooooooooooooo",
"oooooooooooooooo"
};
