/* XPM */
static char *ic_timecoder_xpm[] = {
/* width height ncolors chars_per_pixel */
"16 16 5 1",
/* colors */
"  c #000000",
". c #C0C0C0",
"X c #FF0000",
"o c #0000FF",
"O c None",
/* pixels */
"                ",
" oooooooooooooo ",
" oooooooooooooo ",
" ooooXXoooooXoo ",
" oooXXXooooXooo ",
" oooXoXXXXXXooo ",
" ooXXoXXooXXooo ",
" ooXooooooooooo ",
" oooooooooooooo ",
"                ",
" .............. ",
" ...   . .   .. ",
" ... . ... . .. ",
" ...   . .   .. ",
" .............. ",
"                "
};
