/* XPM */
static char *tab_right_full_xpm[] = {
/* width height ncolors chars_per_pixel */
"9 9 3 1",
/* colors */
"  c #000",
". c #FFF",
"X c None",
/* pixels */
".. ......",
"..  .....",
"..   ....",
"..    ...",
"..     ..",
"..    ...",
"..   ....",
"..  .....",
".. ......"
};
