/* XPM */
static char *tb_borders_xpm[] = {
/* width height ncolors chars_per_pixel */
"16 16 3 1",
/* colors */
"  c #800000",
". c #C0C0C0",
"X c None",
/* pixels */
"          XXXXXX",
" XXXXXXXX XXXXXX",
" XXX         XXX",
" XXX XXXXXXX XXX",
" XXX XXXXXXX XXX",
" XXX         XXX",
" XXXXXXXX XXXXXX",
" XXXXX         X",
" XXXXX XXXXXXX X",
" XXXXX XXXXXXX X",
"       XXXXXXX X",
"XXXXXX XXXXXXX X",
"XXXXXX XXXXXXX X",
"XXXXXX XXXXXXX X",
"XXXXXX         X",
"XXXXXXXXXXXXXXXX"
};
