/* XPM */
static char *tb_cut_xpm[] = {
/* width height ncolors chars_per_pixel */
"15 15 4 1",
/* colors */
"  c #000000",
". c #C0C0C0",
"X c #000080",
"o c None",
/* pixels */
"ooooooooooooooo",
"ooooo ooo ooooo",
"ooooo ooo ooooo",
"ooooo ooo ooooo",
"ooooo  o  ooooo",
"oooooo o oooooo",
"oooooo   oooooo",
"ooooooo ooooooo",
"ooooooXXXoooooo",
"ooooooXoXXXoooo",
"ooooXXXoXooXooo",
"oooXooXoXooXooo",
"oooXooXooXXoooo",
"ooooXXooooooooo",
"ooooooooooooooo"
};
