/* XPM */
static char *tb_cut_xpm[] = {
/* width height ncolors chars_per_pixel */
"16 16 4 1",
/* colors */
"  c #000000",
". c #C0C0C0",
"X c #000080",
"o c None",
/* pixels */
"oooooooooooooooo",
"ooooo ooo oooooo",
"ooooo ooo oooooo",
"ooooo ooo oooooo",
"ooooo  o  oooooo",
"oooooo o ooooooo",
"oooooo   ooooooo",
"ooooooo oooooooo",
"ooooooXXXooooooo",
"ooooooXoXXXooooo",
"ooooXXXoXooXoooo",
"oooXooXoXooXoooo",
"oooXooXooXXooooo",
"ooooXXoooooooooo",
"oooooooooooooooo",
"oooooooooooooooo"
};
