/* XPM */
static char *tb_copy_xpm[] = {
/* width height ncolors chars_per_pixel */
"15 15 6 1",
/* colors */
"  c #000000",
". c #C0C0C0",
"X c #808080",
"o c #000080",
"O c #FFFFFF",
"+ c None",
/* pixels */
"+++++++++++++++",
"      +++++++++",
" OOOO  ++++++++",
" OOOO O +++++++",
" OXXO oooooo+++",
" OOOOOoOOOOoo++",
" OXXXXoOOOOoOo+",
" OOOOOoOXXOoooo",
" OXXXXoOOOOOOOo",
" OOOOOoOXXXXXOo",
"      oOOOOOOOo",
"++++++oOXXXXXOo",
"++++++oOOOOOOOo",
"++++++ooooooooo",
"+++++++++++++++"
};
