/* XPM */
static char *tb_errortrace_xpm[] = {
/* width height ncolors chars_per_pixel */
"15 15 6 1",
/* colors */
"  c #000000",
". c #800000",
"X c #C0C0C0",
"o c #808080",
"O c #008000",
"+ c None",
/* pixels */
"+++++++++++++++",
"++++++o o++++++",
"++ ++.. ..++ ++",
"++ ++..O..++ ++",
"+++ o+ O +o +++",
"++++   O   ++++",
"+++  OOOOO  +++",
"+++  OOOOO  +++",
"++ + OOOOO + ++",
"+ ++ OOOOO ++ +",
"++++  OOO  ++++",
"+++++ OOO +++++",
"+++         +++",
"+  +++++++++  +",
"+++++++++++++++"
};
