/* XPM */
static char *tb_grid_xpm[] = {
/* width height ncolors chars_per_pixel */
"16 16 4 1",
/* colors */
"  c #000000",
". c #C0C0C0",
"X c #008000",
"o c None",
/* pixels */
"oooo oooooXooooo",
"oooo oooooXooooo",
"oooo oooooXooooo",
"oooo oooooXooooo",
"          X    o",
"oooo oooooXooooo",
"oooo oooooXooooo",
"oooo oooooXooooo",
"oooo oooooXooooo",
"oooo oooooXooooo",
"XXXXXXXXXXXXXXXo",
"oooo oooooXooooo",
"oooo oooooXooooo",
"oooo oooooXooooo",
"oooo oooooXooooo",
"oooooooooooooooo"
};
