/* XPM */
static char *tb_redo_xpm[] = {
/* width height ncolors chars_per_pixel */
"15 15 3 1",
/* colors */
"  c #C0C0C0",
". c #000080",
"X c None",
/* pixels */
"XXXXXXXXXXXXXXX",
"XXXXXXXXXXXXXXX",
"XXXX.....XXXXXX",
"XX..XXXXX..XXXX",
"X.XXXXXXXXX.XX.",
".XXXXXXXXXXX...",
".XXXXXXXXXXX...",
".XXXXXXXXXX....",
"X.XXXXXXXXXXXXX",
"XX.XXXXXXXXXXXX",
"XXXXXXXXXXXXXXX",
"XXXXXXXXXXXXXXX",
"XXXXXXXXXXXXXXX",
"XXXXXXXXXXXXXXX",
"XXXXXXXXXXXXXXX"
};
