/* XPM */
static char *tb_reload_xpm[] = {
/* width height ncolors chars_per_pixel */
"16 16 5 1",
/* colors */
"  c #000000",
". c #C0C0C0",
"X c #FFFFFF",
"o c #008000",
"O c None",
/* pixels */
"O          OOOOO",
"O XXXXXXXX  OOOO",
"O XXXoXXXX X OOO",
"O XXXooXXX    OO",
"O XXooooXXXXX OO",
"O XoXooXXoXXX OO",
"O XoXoXXXXoXX OO",
"O XoXXXXXXXoX OO",
"O XXoXXXXoXoX OO",
"O XXXoXXooXoX OO",
"O XXXXXooooXX OO",
"O XXXXXXooXXX OO",
"O XXXXXXXoXXX OO",
"O XXXXXXXXXXX OO",
"O             OO",
"OOOOOOOOOOOOOOOO"
};
