/* XPM */
static char *tb_redo_xpm[] = {
/* width height ncolors chars_per_pixel */
"16 16 3 1",
/* colors */
"  c #C0C0C0",
". c #000080",
"X c None",
/* pixels */
"XXXXXXXXXXXXXXXX",
"XXXXXXXXXXXXXXXX",
"XXXX.....XXXXXXX",
"XX..XXXXX..XXXXX",
"X.XXXXXXXXX.XX.X",
".XXXXXXXXXXX...X",
".XXXXXXXXXXX...X",
".XXXXXXXXXX....X",
"X.XXXXXXXXXXXXXX",
"XX.XXXXXXXXXXXXX",
"XXXXXXXXXXXXXXXX",
"XXXXXXXXXXXXXXXX",
"XXXXXXXXXXXXXXXX",
"XXXXXXXXXXXXXXXX",
"XXXXXXXXXXXXXXXX",
"XXXXXXXXXXXXXXXX"
};
