/* XPM */
static char *tb_saveall_xpm[] = {
/* width height ncolors chars_per_pixel */
"16 16 4 1",
/* colors */
"  c #000000",
". c #C0C0C0",
"X c #808000",
"o c None",
/* pixels */
"oooo           o",
"oooo X ooooo o o",
"oo             o",
"oo X ooooo o X o",
"             X o",
" X ooooo o X X o",
" X ooooo   X X o",
" X ooooo X X X o",
" X ooooo X X X o",
" XX     XX X X o",
" XXXXXXXXX X   o",
" XX      X X ooo",
" XX    X X   ooo",
"o X    X X ooooo",
"oo         ooooo",
"oooooooooooooooo"
};
