/* XPM */
static char *tb_save_xpm[] = {
/* width height ncolors chars_per_pixel */
"16 16 4 1",
/* colors */
"  c #000000",
". c #C0C0C0",
"X c #808000",
"o c None",
/* pixels */
"               o",
" X ooooooooo o o",
" X ooooooooo   o",
" X ooooooooo X o",
" X ooooooooo X o",
" X ooooooooo X o",
" X ooooooooo X o",
" XX         XX o",
" XXXXXXXXXXXXX o",
" XX          X o",
" XX       oo X o",
" XX       oo X o",
"o X       oo X o",
"oo        oo X o",
"ooo            o",
"oooooooooooooooo"
};
