/* XPM */
static char *tb_sizeinc_xpm[] = {
/* width height ncolors chars_per_pixel */
"16 16 4 1",
/* colors */
"  c #000000",
". c #C0C0C0",
"X c #000080",
"o c None",
/* pixels */
"oooooooooooooooo",
"oooooooooooXoooo",
"oooooo  ooXXXooo",
"oooooo  oXXXXXoo",
"oooooo  oooooooo",
"ooooo o  ooooooo",
"ooooo o  ooooooo",
"oooo ooo  oooooo",
"oooo ooo  oooooo",
"ooo        ooooo",
"ooo ooooo  ooooo",
"ooo oooooo  oooo",
"oo   ooo     ooo",
"oooooooooooooooo",
"oooooooooooooooo",
"oooooooooooooooo"
};
