/* XPM */
static char *tb_undo_xpm[] = {
/* width height ncolors chars_per_pixel */
"16 16 3 1",
/* colors */
"  c #C0C0C0",
". c #000080",
"X c None",
/* pixels */
"XXXXXXXXXXXXXXXX",
"XXXXXXXXXXXXXXXX",
"XXXXXX.....XXXXX",
"XXXX..XXXXX..XXX",
".XX.XXXXXXXXX.XX",
"...XXXXXXXXXXX.X",
"...XXXXXXXXXXX.X",
"....XXXXXXXXXX.X",
"XXXXXXXXXXXXX.XX",
"XXXXXXXXXXXX.XXX",
"XXXXXXXXXXXXXXXX",
"XXXXXXXXXXXXXXXX",
"XXXXXXXXXXXXXXXX",
"XXXXXXXXXXXXXXXX",
"XXXXXXXXXXXXXXXX",
"XXXXXXXXXXXXXXXX"
};
