/* XPM */
static char *tb_wrap_xpm[] = {
/* width height ncolors chars_per_pixel */
"16 16 3 1",
/* colors */
"  c #000000",
". c #C0C0C0",
"X c None",
/* pixels */
"XXXXXXXXXXXXXXXX",
"XXXXXXXXXXXXXXXX",
"               X",
"XXXXXXXXXXXXXX X",
"XXXXXXXXXXXXXX X",
"XXXXXXXXXXXXXX X",
"XXXXXXXX XXXXX X",
"XXXXXXX  XXXXX X",
"XXXXXX         X",
"XXXXXXX  XXXXXXX",
"XXXXXXXX XXXXXXX",
"XXXXXXXXXXXXXXXX",
"XXXXXXXXXXXXXXXX",
"XXXXXXXXXXXXXXXX",
"XXXXXXXXXXXXXXXX",
"XXXXXXXXXXXXXXXX"
};
