/* XPM */
static char *tb_xy_xpm[] = {
/* width height ncolors chars_per_pixel */
"16 16 3 1",
/* colors */
"  c #000000",
". c #C0C0C0",
"X c None",
/* pixels */
"XXXX XXXXXXXXXXX",
"XXXX XXXXXXXXXXX",
"XXXX XXXXXXXXXXX",
"XXXXXXXXXXXXXXXX",
"   X X   X X X X",
"XXXXXXXXXXXXXXXX",
"XXXX XXXXXXXXX X",
"XXXX XXXXXXXXXXX",
"XXXX XXXXXXXXX X",
"XXXXXXXXXXXXXXXX",
"XXXX XXXXXXXXX X",
"XXXXXXXXXXXXXXXX",
"XXXX XXXXXXXXX X",
"XXXXXXXXXXXXXXXX",
"XXXX X X X X X X",
"XXXXXXXXXXXXXXXX"
};
